<svg width="359" height="382" viewBox="0 0 359 382" fill="none" xmlns="http://www.w3.org/2000/svg">
<path fill-rule="evenodd" clip-rule="evenodd" d="M358.882 182.765C358.899 181.746 358.908 180.726 358.908 179.704C358.908 80.7016 278.651 0.444458 179.648 0.444458C80.6463 0.444458 0.38916 80.7016 0.38916 179.704C0.38916 180.722 0.397657 181.739 0.414585 182.754C2.04859 85.1637 81.6685 6.55556 179.648 6.55556C277.632 6.55556 357.254 85.1696 358.882 182.765Z" fill="#865BFF"/>
<path fill-rule="evenodd" clip-rule="evenodd" d="M66.0371 255.688C92.0496 312.434 155.926 343.838 218.246 327.14C287.794 308.505 329.067 237.018 310.432 167.469C306.78 153.843 301.1 141.301 293.803 130.084C296.82 136.666 299.328 143.589 301.265 150.817C319.9 220.365 278.627 291.852 209.079 310.487C153.158 325.472 95.9828 301.723 66.0371 255.688Z" fill="#725BFF"/>
<path fill-rule="evenodd" clip-rule="evenodd" d="M358.819 196.42C355.91 286.683 281.822 358.963 190.852 358.963C98.0372 358.963 22.7961 283.722 22.7961 190.907C22.7961 99.9371 95.0768 25.8489 185.34 22.9405C183.45 22.8815 181.552 22.8518 179.648 22.8518C80.6458 22.8518 0.388672 103.109 0.388672 202.111C0.388672 301.113 80.6458 381.37 179.648 381.37C278.65 381.37 358.907 301.113 358.907 202.111C358.907 200.207 358.878 198.31 358.819 196.42Z" fill="#5F5BFF"/>
</svg>
