<svg width="986" height="471" viewBox="0 0 986 471" fill="none" xmlns="http://www.w3.org/2000/svg">
<path d="M250.851 53.967H201.715V187H189.603V53.967H140.565V43.6276H250.851V53.967ZM416.639 187H404.429V118.268H322.502V187H310.39V43.6276H322.502V108.027H404.429V43.6276H416.639V187ZM568.642 118.268H501.584V176.759H578.686V187H489.472V43.6276H578.193V53.967H501.584V108.027H568.642V118.268Z" fill="#C6C6C6"/>
<path d="M124.022 370.14H60.8698L49.8411 405.852H0.60612L70.7168 214.689H114.044L184.679 405.852H135.182L124.022 370.14ZM71.8984 334.559H112.993L92.3802 268.256L71.8984 334.559ZM249.843 214.689L292.513 347.689L335.052 214.689H395.71V405.852H349.495V361.212L353.959 269.832L307.743 405.852H277.283L230.937 269.701L235.401 361.212V405.852H189.317V214.689H249.843ZM489.889 353.86L527.964 214.689H579.431L515.098 405.852H464.681L400.872 214.689H451.946L489.889 353.86Z" fill="white"/>
<path fill-rule="evenodd" clip-rule="evenodd" d="M985.882 206.765C985.899 205.746 985.908 204.726 985.908 203.704C985.908 104.702 905.651 24.4445 806.648 24.4445C707.646 24.4445 627.389 104.702 627.389 203.704C627.389 204.722 627.398 205.739 627.415 206.754C629.049 109.164 708.668 30.5556 806.648 30.5556C904.632 30.5556 984.254 109.17 985.882 206.765Z" fill="#865BFF"/>
<path fill-rule="evenodd" clip-rule="evenodd" d="M693.037 279.688C719.05 336.434 782.926 367.838 845.246 351.14C914.794 332.505 956.067 261.018 937.432 191.469C933.78 177.843 928.1 165.301 920.803 154.084C923.82 160.666 926.328 167.589 928.265 174.817C946.9 244.365 905.627 315.852 836.079 334.487C780.158 349.472 722.983 325.723 693.037 279.688Z" fill="#725BFF"/>
<path fill-rule="evenodd" clip-rule="evenodd" d="M985.819 220.42C982.91 310.683 908.822 382.963 817.852 382.963C725.037 382.963 649.796 307.722 649.796 214.907C649.796 123.937 722.077 49.8489 812.34 46.9405C810.45 46.8815 808.552 46.8518 806.648 46.8518C707.646 46.8518 627.389 127.109 627.389 226.111C627.389 325.113 707.646 405.37 806.648 405.37C905.65 405.37 985.907 325.113 985.907 226.111C985.907 224.207 985.878 222.31 985.819 220.42Z" fill="#5F5BFF"/>
</svg>
